<svg id="Layer_1" xmlns="http://www.w3.org/2000/svg" viewBox="0 0 76.166 68.959"><style>svg *{fill:#81b3d2}</style><path d="M71.914 46.042H4.252A4.265 4.265 0 0 0 0 50.294v3.454A4.265 4.265 0 0 0 4.252 58h.956v1.037c0 5.457 4.464 9.922 9.921 9.922h45.908c5.456 0 9.921-4.465 9.921-9.922V58h.956a4.265 4.265 0 0 0 4.252-4.252v-3.454a4.264 4.264 0 0 0-4.252-4.252zm-3.956 12.995c0 3.816-3.105 6.922-6.921 6.922H15.129c-3.816 0-6.921-3.105-6.921-6.922V58h59.75v1.037zm5.208-5.289c0 .679-.573 1.252-1.252 1.252H4.252A1.268 1.268 0 0 1 3 53.748v-3.454c0-.679.573-1.252 1.252-1.252h67.663c.679 0 1.252.573 1.252 1.252v3.454zM16.162 37.857l5.473 4 5.477-4 5.479 4 5.478-4 5.479 4 5.479-4 5.478 4 5.481-4.001 5.487 4 6.369-4.644-1.768-2.424-4.601 3.356-5.487-4-5.481 3.999-5.478-4-5.479 4-5.479-4-5.478 4-5.479-4-5.476 4-5.473-4.001-5.478 4.001-4.592-3.354-1.77 2.422 6.362 4.646zM8.29 31.094h62.597c.042-.61.071-1.224.071-1.844 0-.388-.016-.772-.033-1.156C70.242 12.476 55.804 0 38.083 0 20.363 0 5.924 12.476 5.241 28.094c-.017.384-.033.769-.033 1.156 0 .62.029 1.233.072 1.844h3.01zM38.083 3c16.031 0 29.15 11.154 29.842 25.094H8.241C8.933 14.154 22.051 3 38.083 3z"/><circle cx="38.083" cy="15.042" r="2"/><circle cx="30.082" cy="10.083" r="2"/><circle cx="46.083" cy="10.083" r="2"/></svg>